<?xml version="1.0" encoding="utf-8"?>
<!-- Generator: Adobe Illustrator 15.1.0, SVG Export Plug-In . SVG Version: 6.00 Build 0)  -->
<!DOCTYPE svg PUBLIC "-//W3C//DTD SVG 1.1//EN" "http://www.w3.org/Graphics/SVG/1.1/DTD/svg11.dtd">
<svg version="1.1" id="Layer_1" xmlns="http://www.w3.org/2000/svg" xmlns:xlink="http://www.w3.org/1999/xlink" x="0px" y="0px"
	 width="236.344px" height="123.776px" viewBox="0 0 236.344 123.776" enable-background="new 0 0 236.344 123.776"
	 xml:space="preserve">
<radialGradient id="SVGID_1_" cx="72.1235" cy="104.082" r="11.4931" gradientUnits="userSpaceOnUse">
	<stop  offset="0.5744" style="stop-color:#000000"/>
	<stop  offset="0.7977" style="stop-color:#000000"/>
	<stop  offset="1" style="stop-color:#000000"/>
</radialGradient>
<path fill="url(#SVGID_1_)" d="M70.724,115.933c-6.009-0.011-9.734-3.296-9.724-8.56c0.002-1.305,0.403-2.606,1.113-3.759
	c-0.373-0.945-0.556-1.935-0.555-2.823c0.011-5.135,4.148-8.572,10.289-8.56c5.122,0.01,8.68,2.497,9.572,6.488l1.751,0.003
	l-0.01,5.069l0.087-0.019l-0.024,11.301l-2.984,0.586c-0.629,0.126-1.253,0.19-1.85,0.188c-1.193-0.002-2.296-0.264-3.243-0.759
	C73.836,115.656,72.371,115.937,70.724,115.933z"/>
<path fill="#FFFFFF" d="M73.86,100.774c-0.084-2.121-4.061-2.001-4.064-0.054c-0.002,1.181,1.046,1.684,1.876,1.687l7.783,0.017
	l-0.007,3.147l-1.596-0.002l-0.002,1.224c-0.001,0.876,0.607,1.511,1.678,1.337l-0.008,3.895c-1.417,0.278-3.211,0.169-3.931-1.693
	c-1.202,1.243-2.693,1.897-4.856,1.892c-3.017-0.006-6.032-1.063-6.024-4.843c0.002-1.227,0.882-2.668,2.283-3.451
	c-1.29-0.659-1.727-2.235-1.726-3.129c0.008-3.803,3.771-4.869,6.573-4.864c3.168,0.009,6.095,1.216,6.087,4.847L73.86,100.774z
	 M71.289,108.659c1.309,0.002,2.536-0.69,2.539-1.962l0.001-1.049l-2.405-0.005c-0.985-0.001-2.318,0.234-2.321,1.506
	C69.101,108.22,70.125,108.658,71.289,108.659z"/>
<radialGradient id="SVGID_2_" cx="124.9146" cy="104.7944" r="31.4339" gradientUnits="userSpaceOnUse">
	<stop  offset="0.5744" style="stop-color:#000000"/>
	<stop  offset="0.7977" style="stop-color:#000000"/>
	<stop  offset="1" style="stop-color:#000000"/>
</radialGradient>
<polygon fill="url(#SVGID_2_)" points="152.137,89.051 152.125,94.864 147.634,89.043 138.832,89.023 136.307,89.018 
	131.368,89.008 124.605,88.995 115.996,88.977 114.153,94.193 112.462,88.968 102.327,88.947 100.675,94.129 98.777,88.94 
	83.397,88.908 95.127,120.5 105.807,120.522 107.422,116.057 109.071,120.528 119.815,120.552 124.567,107.583 124.541,120.593 
	136.241,120.619 138.766,120.624 150.568,120.647 150.579,114.889 155.032,120.657 166.366,120.681 166.433,89.082 "/>
<path fill="#FFFFFF" d="M117.225,116.836l-5.566-0.012l-4.269-11.581l-4.183,11.563l-5.499-0.012l-8.975-24.167l7.446,0.018
	l3.103,8.491c0.565,1.846,0.896,3.827,1.263,5.604l4.49-14.075l4.729,0.007l4.563,14.098c0.338-1.843,0.816-3.79,1.354-5.769
	l2.938-8.309l7.445,0.015L117.225,116.836z"/>
<rect x="119.594" y="101.409" transform="matrix(-0.0021 1 -1 -0.0021 236.7697 -26.6543)" fill="#FFFFFF" width="24.18" height="6.801"/>
<path fill="#FFFFFF" d="M156.012,105.985c-0.164-2.851-0.193-3.991-0.191-4.931l0.017-8.284l6.872,0.015l-0.05,24.181l-5.801-0.014
	l-10.063-13.032l0.085,5.267l-0.017,7.746l-6.906-0.014l0.05-24.183l5.803,0.014L156.012,105.985z"/>
<radialGradient id="SVGID_3_" cx="76.5073" cy="15.3735" r="36.0397" gradientUnits="userSpaceOnUse">
	<stop  offset="0.5744" style="stop-color:#000000"/>
	<stop  offset="0.7977" style="stop-color:#000000"/>
	<stop  offset="1" style="stop-color:#000000"/>
</radialGradient>
<path fill="url(#SVGID_3_)" d="M112.867,3.195l-1.348,4.028l-1.365-3.989l-8.068,0.116l-1.203,4L99.359,3.39L88.596,3.542
	l-1.477,0.021l-7.54,0.108l-3.69,8.561c-0.718-4.545-4.535-8.696-11.164-8.601l-12.618,0.18c-2.69-2.498-6.526-3.875-11.163-3.809
	L27.913,0.188l0.42,29.424l13.032-0.186c4.304-0.061,7.872-1.387,10.457-3.686l0.071,5.007l11.889-0.17l-0.049-3.411l2.496,3.375
	l11.051-0.158l-0.039-2.661l3.946-0.057l1.135-2.974l4.051-0.056l1.223,2.938l8.84-0.126l0.386,0.982l8.491-0.12l1.178-3.442
	l1.324,3.405l8.546-0.122l8.739-25.13L112.867,3.195z"/>
<path fill="#FFFFFF" d="M53.422,14.361c-0.091-6.412-4.133-11.5-12.434-11.381L30.931,3.124l0.335,23.469l10.056-0.144
	C49.754,26.329,53.514,20.807,53.422,14.361z M37.583,8.564l3.483-0.05c4.073-0.059,5.737,2.653,5.783,5.875
	c0.047,3.224-1.407,6.405-5.605,6.465l-3.484,0.05L37.583,8.564z"/>
<path fill="#FFFFFF" d="M60.666,20.837l2.066-0.029l4.985,6.735l6.542-0.094l-0.004-0.343l-5.569-6.997
	c3.528-1.591,4.398-3.814,4.361-6.403c-0.052-3.75-2.896-7.176-8.278-7.099l-10.24,0.146l0.299,20.975l5.935-0.086L60.666,20.837z
	 M60.531,11.41l4.306-0.062c1.569-0.022,2.344,1.25,2.363,2.557c0.018,1.313-0.662,2.458-2.232,2.48l-4.365,0.062L60.531,11.41z"/>
<path fill="#FFFFFF" d="M80.262,21.746l8.087-0.116l1.221,2.942l5.462-0.079L86.705,6.549L81.55,6.621l-7.833,18.176l5.407-0.077
	L80.262,21.746z M84.174,11.645l2.388,5.726l-4.636,0.066L84.174,11.645z"/>
<path fill="#FFFFFF" d="M109.844,25.268l4.393-0.062l6.655-19.146l-5.872,0.084l-2.208,6.59c-0.397,1.571-0.747,3.107-0.988,4.567
	l-3.788-11.059l-3.728,0.054l-3.361,11.16c-0.309-1.4-0.595-2.956-1.065-4.405l-2.558-6.656l-5.872,0.085l7.39,18.946l4.335-0.064
	l3.15-9.173L109.844,25.268z"/>
<polygon fill="#FFFFFF" points="140.142,26.743 146.19,26.658 146.067,18.147 154.364,5.429 154.361,5.161 147.543,5.258 
	143.055,12.644 138.536,5.388 131.714,5.485 131.717,5.724 140.02,18.232 "/>
<path fill="#FFFFFF" d="M159.535,11.067c-5.245,0.074-8.865,3.307-8.789,8.552c0.076,5.354,3.784,8.347,9.029,8.271
	c5.222-0.073,8.85-3.172,8.772-8.526C168.467,14.03,164.755,10.993,159.535,11.067z M159.722,24.001
	c-2.584,0.038-4.408-1.783-4.448-4.446c-0.038-2.669,1.716-4.563,4.315-4.599c2.665-0.04,4.383,1.695,4.423,4.474
	C164.049,22.073,162.357,23.965,159.722,24.001z"/>
<path fill="#FFFFFF" d="M170.566,11.334l0.127,8.91c0.07,4.887,2.968,7.381,7.661,7.316c4.686-0.069,7.516-2.75,7.447-7.486
	l-0.125-8.957l-4.515,0.064l0.127,8.957c0.035,2.448-1.172,3.53-2.99,3.557c-1.845,0.024-3.06-0.981-3.098-3.516l-0.127-8.91
	L170.566,11.334z"/>
<path fill="#FFFFFF" d="M204.258,16.904c-0.048-3.157-2.439-6.038-6.975-5.975l-8.614,0.125l0.253,17.648l4.99-0.072l-0.08-5.727
	l1.735-0.025l4.2,5.668l5.507-0.078l-0.005-0.293l-4.686-5.883C203.552,20.952,204.289,19.083,204.258,16.904z M197.457,19.153
	l-3.677,0.054l-0.06-4.235l3.621-0.053c1.327-0.019,1.976,1.051,1.991,2.151C199.347,18.175,198.776,19.134,197.457,19.153z"/>
<path fill="#B6B3B3" d="M15.085,69.113l-0.213-14.888l4.205-0.06c0.051-0.001,0.102-0.001,0.153-0.001
	c4.792,0,6.761,3.245,6.816,7.091c0.056,3.889-1.694,7.726-6.758,7.798L15.085,69.113 M19.319,47.491
	c-0.113,0-0.225,0.001-0.339,0.002L6.844,47.669l0.403,28.306l12.137-0.171c10.167-0.146,14.707-6.808,14.598-14.583
	C33.872,53.573,29.096,47.491,19.319,47.491"/>
<path fill="#B6B3B3" d="M42.222,60.624l-0.07-4.905l4.195-0.059c0.013-0.001,0.026-0.001,0.038-0.001
	c1.505,0,2.245,1.227,2.265,2.496c0.018,1.272-0.646,2.387-2.179,2.409L42.222,60.624 M46.455,51.036c-0.058,0-0.115,0-0.173,0
	l-9.985,0.144l0.292,20.439l5.789-0.083l-0.096-6.628l2.014-0.03l4.852,6.563l6.381-0.091l-0.006-0.337l-5.428-6.813
	c3.435-1.551,4.283-3.719,4.249-6.235C54.291,54.338,51.583,51.036,46.455,51.036"/>
<polyline fill="#B6B3B3" points="73.685,51.437 57.407,51.668 57.705,72.519 74.393,72.28 74.321,67.308 63.446,67.462 
	63.401,64.309 73.26,64.167 73.192,59.37 63.332,59.509 63.289,56.526 73.756,56.377 73.685,51.437 "/>
<path fill="#B6B3B3" d="M85.571,62.726l2.548-6.557l2.702,6.483L85.571,62.726 M90.979,50.398l-5.838,0.084l-8.866,20.57
	l6.124-0.086l1.284-3.365l9.154-0.13l1.382,3.326l6.181-0.089L90.979,50.398"/>
<polyline fill="#B6B3B3" points="125.371,49.776 118.981,49.866 113.418,57.26 107.612,50.029 101.225,50.119 101.533,71.745 
	107.592,71.659 107.408,58.82 112.905,65.25 113.984,65.232 119.435,58.59 119.619,71.487 125.68,71.399 125.371,49.776 "/>
<path fill="#B6B3B3" d="M157.645,48.811c-0.087,0-0.174,0-0.263,0.001c-10.831,0.154-15.638,8.058-15.532,15.499
	c0.109,7.708,4.589,14.73,15.591,14.73c0.124,0,0.25,0,0.376-0.002c4.438-0.065,8.301-1.361,11.531-4.683l-4.875-5.286
	c-2.047,2.145-4.756,3.027-6.757,3.056c-0.054,0.001-0.107,0.001-0.158,0.001c-5.554,0-7.578-4.208-7.63-7.891
	c-0.054-3.758,1.958-8.307,7.557-8.387c0.052-0.001,0.103-0.001,0.157-0.001c1.915,0,3.948,0.515,6.039,2.392l4.969-4.992
	C165.352,50.203,161.738,48.811,157.645,48.811"/>
<path fill="#B6B3B3" d="M182.38,68.01l3.544-9.143l3.767,9.038L182.38,68.01 M189.917,50.829l-8.137,0.117l-12.358,28.671
	l8.539-0.12l1.791-4.69l12.764-0.183l1.921,4.637l8.615-0.124L189.917,50.829"/>
<path fill="#B6B3B3" d="M213.458,61.461l-0.104-7.209l6.17-0.088c0.018-0.001,0.038-0.001,0.058-0.001
	c2.206,0,3.293,1.802,3.321,3.66c0.024,1.874-0.947,3.518-3.198,3.55L213.458,61.461 M219.682,47.371
	c-0.085,0-0.171,0.001-0.256,0.003l-14.67,0.208l0.429,30.042l8.502-0.123l-0.141-9.75l2.963-0.042l7.13,9.65l9.381-0.134
	l-0.011-0.506l-7.974-10.012c5.054-2.276,6.299-5.462,6.243-9.173C231.205,52.223,227.22,47.371,219.682,47.371"/>
<path fill="#ED1C24" d="M30.486,71.68l0.017,1.155l13.09-0.187l-0.024-1.734l1.269,1.717l6.762-0.097l0.017,1.202l23.992-0.344
	l-0.017-1.2l6.85-0.095l1.284-3.366l4.203-0.061l1.38,3.326l6.123-0.086l0.016,1.052l13.362-0.189l-0.091-6.377l0.04,0.046
	l4.489-0.071l0.191-0.233l0.094,6.567l13.365-0.193l-0.413-28.927l-11.833,0.167l-3.814,5.07l-3.982-4.958l-11.821,0.168
	l0.136,9.596l-4.362-9.405l-10.573,0.153l-5.275,12.237l-0.164-11.371l-23.581,0.338l0.022,1.53
	c-1.849-1.357-4.275-2.216-7.272-2.216l-13.86,0.196l0.016,1.053c-3.192-3.06-7.758-4.793-13.289-4.793l-0.393,0.002L0.652,41.583
	L1.16,77.192l15.79-0.224C22.662,76.885,27.315,74.978,30.486,71.68z M74.582,57.494l-0.208,0.485l-0.007-0.481L74.582,57.494z
	 M16.196,62.922l-0.108-7.584l0.654-0.01c1.088,0,3.113,0,3.164,3.491c0.058,4.048-2.196,4.079-3.157,4.094L16.196,62.922z"/>
<path fill="#FFFFFF" d="M16.493,45.005L4.356,45.182l0.405,28.306l12.136-0.171c10.167-0.146,14.707-6.808,14.597-14.583
	C31.383,50.997,26.499,44.864,16.493,45.005z M16.8,66.566l-4.203,0.061l-0.213-14.89l4.204-0.06
	c4.903-0.069,6.913,3.203,6.968,7.09C23.613,62.656,21.864,66.492,16.8,66.566z"/>
<path fill="#FFFFFF" d="M51.856,55.475c-0.054-3.666-2.821-7-8.063-6.925L33.81,48.69l0.292,20.44l5.788-0.083l-0.095-6.627
	l2.013-0.031l4.852,6.563l6.382-0.093l-0.006-0.336l-5.429-6.813C51.043,60.159,51.892,57.992,51.856,55.475z M43.982,58.077
	l-4.249,0.06l-0.07-4.905l4.196-0.06c1.531-0.021,2.283,1.216,2.303,2.496C46.18,56.939,45.517,58.054,43.982,58.077z"/>
<polygon fill="#FFFFFF" points="60.914,61.82 70.772,61.68 70.705,56.882 60.845,57.022 60.801,54.039 71.269,53.89 71.198,48.949 
	54.92,49.182 55.217,70.032 71.905,69.792 71.833,64.819 60.958,64.976 "/>
<path fill="#FFFFFF" d="M82.654,47.995l-8.867,20.57l6.125-0.086l1.285-3.363l9.154-0.131l1.381,3.324l6.181-0.087l-9.421-20.31
	L82.654,47.995z M83.083,60.238l2.548-6.558l2.702,6.484L83.083,60.238z"/>
<polygon fill="#FFFFFF" points="116.493,47.379 110.931,54.772 105.125,47.541 98.738,47.632 99.045,69.257 105.104,69.172 
	104.92,56.333 110.417,62.762 111.497,62.746 116.948,56.102 117.131,69 123.193,68.913 122.883,47.288 "/>
<path fill="#ED1C24" d="M227.976,65.172c3.063-2.505,4.53-5.867,4.468-10.179c-0.098-6.839-5.364-13.762-15.251-13.762
	l-18.627,0.263l0.325,22.875l-9.146-19.715l-12.872,0.186l-9.546,22.15l-5.297-5.746l-2.687,2.815
	c-1.334,1.397-3.079,1.911-4.168,1.928h-0.106c-3.237,0-3.95-2.333-3.978-4.29c-0.02-1.391,0.327-4.634,3.956-4.684l0.107-0.001
	c0.978,0,2.167,0.173,3.601,1.459l2.581,2.315l10.087-10.139l-2.787-2.572c-3.884-3.586-8.419-5.405-13.479-5.405l-0.315,0.003
	c-13.33,0.188-19.261,10.085-19.132,19.202c0.158,11.135,7.711,18.33,19.242,18.33l0.429-0.004c2.442-0.035,4.676-0.396,6.719-1.088
	l-0.751,1.748L178,80.625l1.791-4.691l7.811-0.11l1.921,4.637l16.724-0.241l-0.684-1.474l9.341-0.134l-0.088-6.172l4.513,6.109
	l14.905-0.214l-0.077-5.403L227.976,65.172z"/>
<path fill="#FFFFFF" d="M161.986,66.581c-2.049,2.145-4.755,3.028-6.757,3.057c-5.674,0.083-7.735-4.172-7.788-7.89
	c-0.055-3.758,1.957-8.307,7.557-8.386c1.96-0.03,4.047,0.461,6.197,2.389l4.968-4.992c-3.368-3.108-7.064-4.495-11.269-4.434
	c-10.831,0.154-15.637,8.056-15.531,15.499c0.111,7.794,4.689,14.888,15.966,14.728c4.438-0.066,8.303-1.362,11.53-4.684
	L161.986,66.581z"/>
<path fill="#FFFFFF" d="M179.293,48.459L166.934,77.13l8.537-0.122l1.793-4.69l12.765-0.183l1.918,4.637l8.617-0.124l-13.135-28.307
	L179.293,48.459z M179.894,65.522l3.544-9.143l3.764,9.039L179.894,65.522z"/>
<path fill="#FFFFFF" d="M228.792,55.046c-0.077-5.37-4.149-10.271-11.853-10.161l-14.67,0.208l0.428,30.041l8.502-0.123l-0.14-9.751
	l2.96-0.04l7.132,9.65l9.379-0.134l-0.008-0.506l-7.974-10.011C227.6,61.942,228.847,58.756,228.792,55.046z M217.215,58.884
	l-6.246,0.089l-0.103-7.21l6.168-0.087c2.247-0.033,3.351,1.786,3.379,3.66C220.441,57.208,219.469,58.852,217.215,58.884z"/>
</svg>
