<svg version="1.1" id="enter-exp" xmlns="http://www.w3.org/2000/svg" xmlns:xlink="http://www.w3.org/1999/xlink" x="0px" y="0px" width="175.339px" height="37.567px" viewBox="0 0 175.339 37.567" enable-background="new 0 0 175.339 37.567" xml:space="preserve" src="assets/studio/dreamCar_Enter_red.svg" data-gwd-node="true" is="gwd-image" source="assets/studio/dreamCar_Enter_red.svg" class="gwd-img-rmtz" gwd-svg-index="3" data-gwd-style="" data-gwd-override-style="border-color: rgba(0,0,0,1);">
<path fill="#ED1C24" d="M156.555,37.567H18.784C8.453,37.567,0,29.115,0,18.783C0,8.453,8.453,0,18.784,0h137.771
	c10.332,0,18.784,8.453,18.784,18.783C175.339,29.115,166.887,37.567,156.555,37.567" data-gwd-node="true" stroke="rgba(0,0,0,1)"></path>
<polygon fill="#FFFFFF" points="30.013,24.894 30.013,12.907 38.623,12.907 38.623,15.018 32.455,15.018 32.455,17.598 
	37.227,17.598 37.227,19.708 32.455,19.708 32.455,22.783 38.761,22.783 38.761,24.894 " data-gwd-node="true"></polygon>
<path fill="#FFFFFF" d="M40.514,24.894V12.907h2.564l5.146,8.943v-8.943h2.442v9.194c0,0.276-0.014,0.566-0.042,0.872
	c-0.027,0.307-0.063,0.534-0.107,0.687c-0.088,0.298-0.204,0.535-0.347,0.714c-0.143,0.179-0.293,0.313-0.449,0.401
	c-0.158,0.09-0.314,0.145-0.471,0.167c-0.157,0.021-0.299,0.032-0.425,0.032c-0.233,0-0.448-0.032-0.646-0.098
	c-0.197-0.064-0.391-0.173-0.58-0.324c-0.19-0.152-0.376-0.347-0.56-0.585c-0.184-0.237-0.376-0.527-0.577-0.868l-3.507-5.818v7.612
	H40.514z" data-gwd-node="true"></path>
<polygon fill="#FFFFFF" points="51.997,15.018 51.997,12.907 61.653,12.907 61.653,15.018 58.059,15.018 58.059,24.894 
	55.583,24.894 55.583,15.018 " data-gwd-node="true"></polygon>
<polygon fill="#FFFFFF" points="63.041,24.894 63.041,12.907 71.651,12.907 71.651,15.018 65.484,15.018 65.484,17.598 
	70.255,17.598 70.255,19.708 65.484,19.708 65.484,22.783 71.79,22.783 71.79,24.894 " data-gwd-node="true"></polygon>
<path fill="#FFFFFF" d="M73.542,24.894V12.907h4.569c0.572,0,1.109,0.059,1.612,0.175c0.502,0.115,0.94,0.311,1.313,0.584
	s0.662,0.629,0.871,1.067c0.208,0.438,0.312,0.976,0.312,1.614c0,0.432-0.069,0.838-0.205,1.214
	c-0.138,0.375-0.321,0.714-0.553,1.014c-0.231,0.301-0.5,0.557-0.807,0.768c-0.306,0.211-0.626,0.371-0.959,0.479
	c0.188,0.087,0.356,0.203,0.504,0.349c0.148,0.146,0.305,0.319,0.471,0.52l2.642,3.076l-1.915,1.379l-2.951-3.473
	c-0.2-0.233-0.374-0.428-0.522-0.585c-0.148-0.156-0.289-0.281-0.42-0.373c-0.132-0.092-0.267-0.155-0.405-0.19
	c-0.137-0.035-0.29-0.053-0.457-0.053h-0.59v4.423H73.542z M76.05,18.394h1.604c0.621,0,1.118-0.145,1.493-0.431
	c0.376-0.286,0.563-0.714,0.563-1.282c0-0.357-0.05-0.647-0.15-0.872c-0.1-0.225-0.237-0.4-0.414-0.527
	c-0.175-0.128-0.389-0.214-0.643-0.26c-0.253-0.047-0.537-0.069-0.85-0.069H76.05V18.394z" data-gwd-node="true"></path>
<path fill="#FFFFFF" d="M87.947,24.894V12.907h2.564l5.145,8.943v-8.943h2.443v9.194c0,0.276-0.015,0.566-0.042,0.872
	c-0.027,0.307-0.063,0.534-0.106,0.687c-0.089,0.298-0.204,0.535-0.347,0.714c-0.144,0.179-0.294,0.313-0.45,0.401
	c-0.157,0.09-0.313,0.145-0.471,0.167c-0.156,0.021-0.298,0.032-0.425,0.032c-0.233,0-0.448-0.032-0.646-0.098
	c-0.197-0.064-0.391-0.173-0.58-0.324c-0.189-0.152-0.376-0.347-0.56-0.585c-0.185-0.237-0.377-0.527-0.577-0.868l-3.507-5.818
	v7.612H87.947z" data-gwd-node="true"></path>
<path fill="#FFFFFF" d="M99.828,18.929c0-0.795,0.107-1.568,0.324-2.317s0.56-1.414,1.03-1.996s1.071-1.047,1.802-1.396
	s1.612-0.523,2.646-0.523c1.077,0,1.982,0.175,2.719,0.523s1.331,0.813,1.785,1.396c0.455,0.582,0.784,1.246,0.986,1.992
	c0.203,0.747,0.305,1.521,0.305,2.321c0,0.795-0.108,1.57-0.325,2.325c-0.218,0.755-0.56,1.422-1.03,2.004s-1.071,1.047-1.802,1.396
	c-0.73,0.349-1.608,0.523-2.638,0.523c-1.077,0-1.983-0.175-2.719-0.523c-0.735-0.35-1.333-0.814-1.793-1.396
	s-0.79-1.249-0.99-2.004S99.828,19.724,99.828,18.929 M102.449,18.929c0,0.563,0.061,1.094,0.183,1.595
	c0.121,0.501,0.313,0.933,0.576,1.298c0.262,0.365,0.594,0.655,0.994,0.873c0.399,0.217,0.876,0.324,1.428,0.324
	s1.026-0.107,1.425-0.324c0.397-0.218,0.728-0.508,0.989-0.873c0.263-0.365,0.455-0.797,0.576-1.298
	c0.122-0.501,0.183-1.032,0.183-1.595s-0.061-1.093-0.183-1.587c-0.121-0.495-0.313-0.927-0.576-1.298
	c-0.262-0.371-0.592-0.661-0.989-0.872c-0.398-0.212-0.873-0.317-1.425-0.317s-1.028,0.105-1.428,0.317
	c-0.4,0.211-0.732,0.501-0.994,0.872c-0.263,0.371-0.455,0.802-0.576,1.294C102.509,17.831,102.449,18.36,102.449,18.929" data-gwd-node="true"></path>
<path fill="#FFFFFF" d="M112.609,13.094l2.459-0.349l1.03,8.626c0.065,0.576,0.219,0.99,0.463,1.24
	c0.243,0.25,0.602,0.375,1.079,0.375c0.168,0,0.345-0.019,0.531-0.057s0.359-0.1,0.516-0.187v-9.836h2.508v9.819
	c0.157,0.087,0.332,0.147,0.527,0.187c0.194,0.038,0.391,0.057,0.592,0.057c0.423,0,0.758-0.114,1.007-0.342
	c0.248-0.229,0.405-0.643,0.471-1.24l1.015-8.643l2.491,0.349l-1.06,8.676c-0.064,0.508-0.182,0.971-0.35,1.387
	c-0.167,0.418-0.4,0.771-0.698,1.063c-0.297,0.292-0.666,0.52-1.104,0.682c-0.438,0.162-0.958,0.243-1.56,0.243
	c-0.497,0-0.974-0.05-1.428-0.149c-0.455-0.1-0.848-0.254-1.178-0.465c-0.39,0.2-0.79,0.352-1.201,0.458
	c-0.411,0.104-0.861,0.156-1.349,0.156c-0.632,0-1.167-0.081-1.603-0.243s-0.801-0.39-1.096-0.682s-0.52-0.646-0.674-1.063
	c-0.154-0.416-0.264-0.879-0.328-1.388L112.609,13.094z" data-gwd-node="true"></path>
<polygon fill="#FFFFFF" points="140.789,12.85 152.113,19.508 140.789,26.167 " data-gwd-node="true"></polygon>
</svg>