<?xml version="1.0" encoding="utf-8"?>
<!-- Generator: Adobe Illustrator 15.1.0, SVG Export Plug-In . SVG Version: 6.00 Build 0)  -->
<!DOCTYPE svg PUBLIC "-//W3C//DTD SVG 1.1//EN" "http://www.w3.org/Graphics/SVG/1.1/DTD/svg11.dtd">
<svg version="1.1" id="Layer_1" xmlns="http://www.w3.org/2000/svg" xmlns:xlink="http://www.w3.org/1999/xlink" x="0px" y="0px"
	 width="150.614px" height="32.205px" viewBox="0 0 150.614 32.205" enable-background="new 0 0 150.614 32.205"
	 xml:space="preserve">
<path fill="#47B865" d="M134.512,32.205H16.406c-8.856,0-16.103-7.246-16.103-16.103l0,0C0.303,7.246,7.55,0,16.406,0h118.105
	c8.856,0,16.103,7.246,16.103,16.102l0,0C150.614,24.958,143.368,32.205,134.512,32.205z"/>
<polygon fill="#FFFFFF" points="26.032,21.34 26.032,11.065 33.413,11.065 33.413,12.874 28.125,12.874 28.125,15.086 
	32.216,15.086 32.216,16.895 28.125,16.895 28.125,19.531 33.531,19.531 33.531,21.34 "/>
<path fill="#FFFFFF" d="M35.034,21.34V11.065h2.198l4.411,7.666v-7.666h2.094v7.882c0,0.236-0.012,0.485-0.036,0.748
	c-0.023,0.262-0.054,0.458-0.092,0.588c-0.076,0.255-0.175,0.459-0.297,0.612c-0.123,0.152-0.251,0.268-0.386,0.344
	c-0.135,0.077-0.269,0.124-0.403,0.143c-0.134,0.02-0.256,0.028-0.365,0.028c-0.199,0-0.384-0.028-0.553-0.084
	s-0.335-0.147-0.498-0.278c-0.163-0.13-0.323-0.297-0.48-0.5c-0.158-0.204-0.323-0.453-0.495-0.745l-3.006-4.988v6.526H35.034z"/>
<polygon fill="#FFFFFF" points="44.877,12.874 44.877,11.065 53.156,11.065 53.156,12.874 50.074,12.874 50.074,21.34 47.953,21.34 
	47.953,12.874 "/>
<polygon fill="#FFFFFF" points="54.346,21.34 54.346,11.065 61.727,11.065 61.727,12.874 56.44,12.874 56.44,15.086 60.53,15.086 
	60.53,16.895 56.44,16.895 56.44,19.531 61.845,19.531 61.845,21.34 "/>
<path fill="#FFFFFF" d="M63.348,21.34V11.065h3.917c0.49,0,0.951,0.05,1.381,0.149s0.806,0.267,1.125,0.501s0.568,0.539,0.747,0.915
	c0.178,0.376,0.267,0.837,0.267,1.385c0,0.371-0.059,0.718-0.176,1.04c-0.118,0.322-0.276,0.612-0.474,0.87
	c-0.198,0.257-0.428,0.477-0.691,0.657c-0.262,0.181-0.536,0.318-0.822,0.411c0.162,0.074,0.306,0.173,0.432,0.299
	c0.126,0.125,0.262,0.273,0.404,0.445l2.264,2.636l-1.642,1.183l-2.53-2.978c-0.171-0.199-0.321-0.366-0.447-0.5
	c-0.127-0.135-0.248-0.242-0.36-0.32c-0.113-0.079-0.229-0.134-0.347-0.164c-0.118-0.029-0.249-0.045-0.392-0.045h-0.506v3.792
	H63.348z M65.498,15.768h1.375c0.532,0,0.959-0.123,1.281-0.369s0.482-0.612,0.482-1.099c0-0.306-0.043-0.555-0.129-0.748
	s-0.203-0.343-0.354-0.452c-0.15-0.109-0.334-0.183-0.552-0.223c-0.217-0.04-0.46-0.059-0.729-0.059h-1.375V15.768z"/>
<path fill="#FFFFFF" d="M75.696,21.34V11.065h2.198l4.41,7.666v-7.666h2.095v7.882c0,0.236-0.012,0.485-0.036,0.748
	c-0.023,0.262-0.054,0.458-0.092,0.588c-0.075,0.255-0.174,0.459-0.297,0.612c-0.122,0.152-0.251,0.268-0.385,0.344
	c-0.136,0.077-0.27,0.124-0.404,0.143c-0.134,0.02-0.256,0.028-0.364,0.028c-0.199,0-0.384-0.028-0.553-0.084
	s-0.336-0.147-0.498-0.278c-0.162-0.13-0.322-0.297-0.479-0.5c-0.158-0.204-0.323-0.453-0.495-0.745l-3.006-4.988v6.526H75.696z"/>
<path fill="#FFFFFF" d="M85.881,16.227c0-0.682,0.093-1.344,0.278-1.986s0.48-1.213,0.884-1.711
	c0.403-0.499,0.918-0.897,1.544-1.197c0.626-0.299,1.383-0.449,2.269-0.449c0.923,0,1.699,0.15,2.33,0.449
	c0.631,0.299,1.141,0.698,1.53,1.197c0.39,0.499,0.672,1.068,0.846,1.708c0.174,0.64,0.261,1.303,0.261,1.989
	c0,0.682-0.093,1.346-0.278,1.994c-0.186,0.646-0.48,1.219-0.884,1.718s-0.918,0.897-1.544,1.196c-0.626,0.3-1.38,0.449-2.261,0.449
	c-0.924,0-1.7-0.149-2.331-0.449c-0.631-0.299-1.143-0.697-1.537-1.196s-0.677-1.071-0.849-1.718
	C85.967,17.573,85.881,16.909,85.881,16.227z M88.128,16.227c0,0.482,0.052,0.938,0.156,1.367c0.104,0.43,0.27,0.801,0.494,1.113
	c0.225,0.313,0.51,0.563,0.853,0.748s0.751,0.278,1.225,0.278c0.473,0,0.88-0.093,1.221-0.278s0.624-0.435,0.849-0.748
	c0.225-0.313,0.39-0.684,0.494-1.113c0.104-0.429,0.156-0.884,0.156-1.367c0-0.482-0.052-0.936-0.156-1.36s-0.27-0.795-0.494-1.113
	s-0.508-0.567-0.849-0.748c-0.341-0.181-0.748-0.271-1.221-0.271c-0.474,0-0.882,0.09-1.225,0.271
	c-0.343,0.181-0.628,0.43-0.853,0.748s-0.39,0.688-0.494,1.11S88.128,15.74,88.128,16.227z"/>
<path fill="#FFFFFF" d="M96.838,11.225l2.107-0.299l0.884,7.395c0.056,0.494,0.188,0.849,0.396,1.063
	c0.209,0.215,0.518,0.322,0.926,0.322c0.144,0,0.296-0.017,0.455-0.049c0.16-0.033,0.308-0.086,0.442-0.16v-8.432h2.149v8.418
	c0.134,0.074,0.285,0.127,0.452,0.159c0.167,0.033,0.336,0.049,0.508,0.049c0.361,0,0.649-0.098,0.862-0.293
	c0.213-0.196,0.349-0.551,0.404-1.063l0.869-7.409l2.136,0.299l-0.908,7.438c-0.056,0.436-0.155,0.832-0.299,1.188
	c-0.144,0.357-0.344,0.661-0.599,0.911c-0.256,0.251-0.571,0.445-0.947,0.585c-0.376,0.139-0.821,0.208-1.336,0.208
	c-0.428,0-0.836-0.043-1.226-0.128s-0.727-0.218-1.009-0.398c-0.334,0.171-0.678,0.302-1.03,0.392s-0.738,0.135-1.155,0.135
	c-0.543,0-1.001-0.069-1.375-0.208c-0.373-0.14-0.687-0.334-0.938-0.585c-0.253-0.25-0.445-0.554-0.578-0.911
	c-0.132-0.356-0.226-0.753-0.281-1.189L96.838,11.225z"/>
<polygon fill="#FFFFFF" points="120.995,11.016 130.703,16.724 120.995,22.431 "/>
</svg>
