<?xml version="1.0" encoding="utf-8"?>
<!-- Generator: Adobe Illustrator 15.1.0, SVG Export Plug-In . SVG Version: 6.00 Build 0)  -->
<!DOCTYPE svg PUBLIC "-//W3C//DTD SVG 1.1//EN" "http://www.w3.org/Graphics/SVG/1.1/DTD/svg11.dtd">
<svg version="1.1" id="Layer_1" xmlns="http://www.w3.org/2000/svg" xmlns:xlink="http://www.w3.org/1999/xlink" x="0px" y="0px"
	 width="190.957px" height="99.56px" viewBox="0 0 190.957 99.56" enable-background="new 0 0 190.957 99.56" xml:space="preserve">
<path fill="#ED2224" d="M58.248,92.003c-4.665-0.01-7.557-2.56-7.549-6.646c0.002-1.012,0.313-2.021,0.865-2.917
	c-0.29-0.734-0.432-1.502-0.431-2.191c0.008-3.987,3.22-6.655,7.986-6.645c3.975,0.008,6.738,1.937,7.43,5.035l1.359,0.004
	l-0.007,3.933l0.068-0.013l-0.018,8.771l-2.316,0.454c-0.489,0.099-0.973,0.147-1.436,0.146c-0.926-0.002-1.782-0.205-2.517-0.59
	C60.664,91.788,59.527,92.005,58.248,92.003z"/>
<path fill="#FFFFFF" d="M60.682,80.237c-0.065-1.647-3.151-1.555-3.154-0.042c-0.002,0.916,0.812,1.308,1.456,1.309l6.042,0.013
	L65.02,83.96l-1.239-0.002l-0.002,0.949c-0.001,0.68,0.471,1.172,1.302,1.038l-0.006,3.022c-1.099,0.216-2.493,0.131-3.052-1.314
	c-0.933,0.966-2.09,1.473-3.769,1.469c-2.342-0.005-4.683-0.824-4.677-3.759c0.002-0.953,0.685-2.071,1.772-2.679
	c-1.001-0.511-1.34-1.735-1.339-2.43c0.006-2.951,2.928-3.778,5.102-3.774c2.459,0.007,4.731,0.943,4.725,3.763L60.682,80.237z
	 M58.686,86.356c1.016,0.002,1.969-0.536,1.971-1.522l0.001-0.814l-1.867-0.004c-0.764-0.001-1.799,0.182-1.801,1.17
	C56.987,86.015,57.783,86.355,58.686,86.356z"/>
<polyline fill="#B6B3B3" points="70.016,72.957 79.121,97.478 87.412,97.496 88.666,94.029 89.945,97.501 98.285,97.518 
	101.974,87.453 101.953,97.551 111.036,97.57 112.995,97.574 122.156,97.593 122.165,93.124 125.622,97.601 134.42,97.62 
	134.472,73.091 123.374,73.067 123.364,77.581 119.88,73.06 113.046,73.045 111.087,73.042 107.253,73.034 102.004,73.023 
	95.32,73.009 93.89,77.058 92.578,73.003 84.71,72.987 83.428,77.008 81.955,72.981 70.016,72.957 "/>
<polygon fill="#ED2224" points="121.443,71.136 121.435,75.649 117.949,71.13 111.115,71.115 109.156,71.111 105.322,71.103 
	100.072,71.092 93.389,71.079 91.959,75.127 90.646,71.072 82.779,71.055 81.497,75.078 80.024,71.05 68.085,71.026 77.19,95.547 
	85.481,95.565 86.735,92.099 88.014,95.569 96.354,95.588 100.042,85.522 100.021,95.62 109.104,95.639 111.064,95.643 
	120.226,95.662 120.234,91.192 123.69,95.669 132.488,95.688 132.54,71.16 "/>
<path fill="#FFFFFF" d="M94.344,92.704l-4.321-0.009l-3.313-8.989l-3.247,8.976l-4.269-0.01l-6.966-18.758l5.78,0.013l2.408,6.591
	c0.439,1.433,0.696,2.971,0.98,4.35l3.485-10.927l3.671,0.007l3.542,10.943c0.262-1.432,0.633-2.943,1.05-4.478l2.281-6.451
	l5.778,0.013L94.344,92.704z"/>
<rect x="96.183" y="80.729" transform="matrix(-0.0021 1 -1 -0.0021 189.1551 -22.0255)" fill="#FFFFFF" width="18.77" height="5.279"/>
<path fill="#FFFFFF" d="M124.452,84.281c-0.128-2.214-0.15-3.099-0.148-3.827l0.012-6.431l5.336,0.011l-0.039,18.771l-4.503-0.011
	l-7.812-10.115l0.065,4.088l-0.013,6.013l-5.361-0.012l0.039-18.771l4.504,0.011L124.452,84.281z"/>
<path fill="#B6B3B3" d="M37.313,3.942c-0.083,0-0.167,0-0.25,0.001L26.947,4.088l0.326,22.84l10.117-0.145
	c3.341-0.047,6.112-1.077,8.117-2.861l0.056,3.886l9.229-0.131l-0.039-2.647l1.938,2.62l8.578-0.122l-0.03-2.065l3.062-0.043
	l0.882-2.308l3.144-0.045l0.95,2.282l6.862-0.098l0.299,0.762l6.592-0.094l0.914-2.671l1.028,2.643l6.634-0.094l6.783-19.507
	l-9.496,0.136l-1.047,3.125l-1.06-3.096l-6.263,0.09l-0.934,3.106l-1.183-3.076l-8.355,0.119l-1.146,0.017l-5.853,0.083
	l-2.864,6.646c-0.551-3.488-3.455-6.677-8.492-6.677c-0.057,0-0.114,0-0.173,0.001l-9.795,0.14
	C43.689,5.007,40.8,3.943,37.313,3.942"/>
<path fill="#ED2224" d="M90.961,4.492l-1.046,3.126l-1.06-3.096l-6.263,0.09l-0.934,3.106l-1.183-3.076L72.12,4.761l-1.146,0.017
	L65.122,4.86l-2.865,6.646c-0.557-3.528-3.52-6.75-8.665-6.676l-9.795,0.14c-2.088-1.939-5.065-3.009-8.665-2.956L25.017,2.157
	l0.326,22.84l10.116-0.145c3.341-0.047,6.11-1.077,8.117-2.861l0.055,3.886l9.229-0.131L52.821,23.1l1.938,2.62l8.578-0.123
	l-0.029-2.065l3.062-0.043l0.881-2.308l3.145-0.045l0.949,2.281l6.862-0.097l0.299,0.762l6.592-0.094l0.914-2.671l1.028,2.643
	l6.634-0.094l6.783-19.507L90.961,4.492z"/>
<path fill="#FFFFFF" d="M44.817,13.158c-0.071-4.977-3.208-8.926-9.651-8.833l-7.807,0.111l0.26,18.218l7.807-0.111
	C41.97,22.449,44.888,18.162,44.817,13.158z M32.522,8.659l2.704-0.039c3.162-0.045,4.454,2.06,4.489,4.561
	c0.037,2.503-1.092,4.971-4.352,5.018l-2.704,0.039L32.522,8.659z"/>
<path fill="#FFFFFF" d="M50.441,18.186l1.603-0.023l3.87,5.229l5.079-0.072l-0.003-0.266l-4.324-5.432
	c2.739-1.235,3.415-2.96,3.385-4.971c-0.041-2.911-2.248-5.57-6.425-5.51l-7.948,0.114l0.232,16.28l4.606-0.066L50.441,18.186z
	 M50.336,10.869l3.343-0.048c1.217-0.018,1.819,0.97,1.833,1.984c0.014,1.019-0.513,1.907-1.732,1.925l-3.388,0.048L50.336,10.869z"
	/>
<path fill="#FFFFFF" d="M65.652,18.891l6.278-0.09l0.948,2.284l4.24-0.061L70.653,7.094l-4.001,0.057l-6.08,14.109l4.198-0.06
	L65.652,18.891z M68.688,11.05l1.854,4.445l-3.599,0.051L68.688,11.05z"/>
<path fill="#FFFFFF" d="M88.614,21.626l3.41-0.049l5.166-14.862l-4.558,0.066l-1.713,5.115c-0.309,1.219-0.581,2.412-0.767,3.545
	l-2.94-8.584l-2.895,0.042l-2.609,8.663c-0.24-1.087-0.462-2.294-0.827-3.419l-1.986-5.167l-4.558,0.065l5.736,14.707L83.44,21.7
	l2.444-7.121L88.614,21.626z"/>
<polyline fill="#B6B3B3" points="124.457,7.305 119.165,7.379 115.68,13.113 112.173,7.481 106.879,7.556 106.881,7.742 
	113.325,17.451 113.421,24.058 118.115,23.992 118.02,17.385 124.46,7.513 124.457,7.305 "/>
<path fill="#B6B3B3" d="M128.559,21.93c-1.974,0-3.362-1.405-3.392-3.452c-0.03-2.072,1.33-3.542,3.35-3.57
	c0.022,0,0.046-0.001,0.068-0.001c2.03,0,3.334,1.34,3.362,3.473c0.03,2.051-1.282,3.521-3.329,3.549
	C128.599,21.93,128.578,21.93,128.559,21.93 M128.62,11.888c-0.049,0-0.098,0-0.147,0.001c-4.071,0.057-6.88,2.567-6.822,6.638
	c0.06,4.106,2.868,6.422,6.86,6.422c0.049,0,0.099,0,0.149-0.001c4.052-0.057,6.868-2.462,6.808-6.618
	C135.408,14.24,132.596,11.888,128.62,11.888"/>
<path fill="#B6B3B3" d="M148.765,11.929l-3.504,0.049l0.099,6.953c0.027,1.9-0.91,2.74-2.321,2.761c-0.017,0-0.032,0-0.049,0
	c-1.406,0-2.327-0.785-2.354-2.729l-0.1-6.917l-3.499,0.05l0.099,6.917c0.054,3.746,2.246,5.68,5.808,5.68
	c0.047,0,0.093,0,0.139-0.001c3.638-0.053,5.835-2.136,5.782-5.811L148.765,11.929"/>
<path fill="#B6B3B3" d="M155.057,18.207l-0.046-3.287l2.81-0.041c0.009,0,0.019,0,0.027,0c1.012,0,1.505,0.824,1.518,1.67
	c0.012,0.857-0.431,1.601-1.455,1.616L155.057,18.207 M157.891,11.781c-0.039,0-0.076,0-0.115,0.001l-6.686,0.096l0.195,13.699
	l3.875-0.055l-0.063-4.445l1.346-0.019l3.261,4.399l4.274-0.06l-0.004-0.228l-3.637-4.565c2.303-1.042,2.875-2.492,2.851-4.184
	C163.154,13.997,161.336,11.781,157.891,11.781"/>
<polygon fill="#FFFFFF" points="112.133,22.771 116.827,22.705 116.732,16.097 123.173,6.226 123.17,6.018 117.878,6.092 
	114.394,11.826 110.885,6.193 105.591,6.269 105.593,6.455 112.038,16.164 "/>
<path fill="#FFFFFF" d="M127.187,10.602c-4.072,0.057-6.882,2.568-6.823,6.638c0.06,4.157,2.938,6.479,7.01,6.42
	c4.053-0.057,6.868-2.461,6.808-6.618C134.121,12.902,131.239,10.544,127.187,10.602z M127.33,20.642
	c-2.005,0.029-3.42-1.384-3.451-3.451c-0.03-2.072,1.331-3.542,3.351-3.57c2.068-0.031,3.4,1.315,3.432,3.472
	C130.69,19.145,129.378,20.614,127.33,20.642z"/>
<path fill="#FFFFFF" d="M135.749,10.809l0.098,6.917c0.055,3.794,2.305,5.729,5.947,5.679c3.636-0.053,5.835-2.136,5.781-5.811
	l-0.099-6.952l-3.504,0.049l0.099,6.953c0.028,1.9-0.909,2.74-2.319,2.761c-1.434,0.018-2.377-0.762-2.404-2.729l-0.099-6.917
	L135.749,10.809z"/>
<path fill="#FFFFFF" d="M161.901,15.132c-0.036-2.45-1.893-4.687-5.413-4.637l-6.687,0.097l0.197,13.699l3.874-0.055l-0.063-4.446
	l1.347-0.019l3.261,4.399l4.274-0.06l-0.003-0.228l-3.638-4.565C161.354,18.275,161.927,16.824,161.901,15.132z M156.622,16.878
	l-2.854,0.042l-0.046-3.287l2.81-0.041c1.031-0.016,1.534,0.815,1.545,1.669C158.091,16.119,157.646,16.863,156.622,16.878z"/>
<path fill="#B6B3B3" d="M71.751,45.611l-1.979,5.091l4.076-0.058L71.751,45.611 M39.355,45.216c-0.009,0-0.019,0-0.029,0
	l-3.257,0.046l0.055,3.807l3.297-0.047c1.191-0.017,1.706-0.882,1.692-1.87C41.098,46.168,40.523,45.216,39.355,45.216
	 M17.853,52.785l-0.084-5.887l0.508-0.007c0.844,0,2.416,0,2.455,2.71c0.045,3.141-1.705,3.167-2.451,3.177L17.853,52.785
	 M18.276,44.055c-0.04,0-0.079,0-0.119,0l-3.264,0.046l0.166,11.558l3.262-0.047c3.931-0.056,5.289-3.034,5.246-6.054
	C23.523,46.573,21.996,44.055,18.276,44.055 M63.011,48.948l-0.005-0.374l0.167-0.002L63.011,48.948 M48.142,58.303l-0.23-16.186
	l12.635-0.18l0.055,3.835l-8.125,0.116l0.033,2.315l7.654-0.108l0.053,3.725l-7.653,0.109l0.035,2.448l8.441-0.12l0.055,3.858
	L48.142,58.303 M31.751,57.604l-0.227-15.865l7.75-0.111c0.045,0,0.09-0.001,0.134-0.001c3.98,0,6.083,2.563,6.125,5.377
	c0.026,1.953-0.632,3.635-3.298,4.84l4.214,5.289l0.004,0.261L41.5,57.465l-3.767-5.095l-1.563,0.024l0.074,5.146L31.751,57.604
	 M62.557,57.165l6.882-15.967l4.532-0.065l7.312,15.765l-4.797,0.069l-1.073-2.582l-7.105,0.103l-0.997,2.61L62.557,57.165
	 M91.389,46.458l4.318-5.738l4.959-0.071l0.24,16.786l-4.704,0.067l-0.144-10.012l-4.23,5.157l-0.838,0.013l-4.267-4.991
	l0.142,9.965l-4.703,0.067l-0.239-16.787l4.958-0.07L91.389,46.458 M8.975,60.987L8.662,39.014l9.421-0.136
	c0.089-0.001,0.175-0.002,0.263-0.002c7.589,0,11.296,4.721,11.382,10.657c0.084,6.036-3.439,11.208-11.332,11.32L8.975,60.987
	 M18.346,36.041l-0.305,0.002L5.787,36.221l0.394,27.64l12.257-0.174c4.434-0.063,8.045-1.544,10.507-4.104l0.013,0.896
	l10.161-0.145l-0.019-1.346l0.985,1.332l5.249-0.075l0.013,0.933l18.623-0.267l-0.013-0.932l5.316-0.074l0.998-2.611l3.262-0.048
	l1.072,2.582l4.752-0.068l0.012,0.817l10.372-0.146l-0.07-4.951l0.031,0.036l3.484-0.055l0.149-0.181l0.072,5.098l10.374-0.15
	l-0.32-22.453l-9.184,0.13l-2.96,3.935l-3.091-3.848l-9.176,0.13l0.106,7.449l-3.386-7.3l-8.208,0.118l-4.094,9.499l-0.127-8.825
	l-18.305,0.261l0.017,1.188c-1.435-1.053-3.318-1.72-5.645-1.72l-10.759,0.153l0.012,0.818
	C26.184,37.385,22.64,36.041,18.346,36.041"/>
<path fill="#B6B3B3" d="M15.059,55.66l-0.166-11.558l3.264-0.046c0.04,0,0.079,0,0.119,0c3.72,0,5.248,2.518,5.291,5.504
	c0.043,3.02-1.315,5.998-5.246,6.054L15.059,55.66 M18.346,38.875c-0.088,0-0.174,0.001-0.263,0.002l-9.421,0.136l0.313,21.973
	l9.421-0.135c7.892-0.112,11.416-5.284,11.332-11.32C29.642,43.596,25.935,38.875,18.346,38.875"/>
<path fill="#B6B3B3" d="M36.124,49.069l-0.055-3.807l3.257-0.046c0.01,0,0.02,0,0.029,0c1.168,0,1.743,0.952,1.758,1.937
	c0.014,0.988-0.501,1.853-1.692,1.87L36.124,49.069 M39.409,41.627c-0.044,0-0.089,0-0.134,0.001l-7.75,0.111l0.227,15.865
	l4.493-0.063l-0.074-5.146l1.563-0.024l3.767,5.095l4.954-0.071l-0.004-0.261l-4.214-5.289c2.667-1.205,3.325-2.887,3.298-4.84
	C45.492,44.19,43.39,41.627,39.409,41.627"/>
<polyline fill="#B6B3B3" points="60.547,41.938 47.912,42.118 48.142,58.303 61.095,58.117 61.04,54.258 52.599,54.378 
	52.563,51.93 60.217,51.821 60.164,48.096 52.51,48.205 52.477,45.889 60.602,45.773 60.547,41.938 "/>
<path fill="#B6B3B3" d="M69.772,50.702l1.979-5.091l2.097,5.033L69.772,50.702 M73.971,41.132l-4.532,0.065l-6.882,15.967
	l4.754-0.067l0.997-2.61l7.105-0.103l1.073,2.582l4.797-0.069L73.971,41.132"/>
<polyline fill="#B6B3B3" points="100.666,40.649 95.707,40.72 91.389,46.458 86.882,40.846 81.924,40.916 82.163,57.703 
	86.866,57.635 86.724,47.67 90.991,52.661 91.829,52.648 96.059,47.491 96.202,57.502 100.906,57.435 100.666,40.649 "/>
<path fill="#B6B3B3" d="M147.672,47.706l-2.751,7.096l5.673-0.08L147.672,47.706 M173.797,44.055c-0.016,0-0.03,0-0.045,0
	l-4.789,0.069l0.08,5.596l4.849-0.068c1.748-0.026,2.502-1.302,2.482-2.755C176.354,45.453,175.509,44.054,173.797,44.055
	 M134.86,63.813l9.594-22.255l6.315-0.091l10.195,21.973l-6.688,0.097l-1.49-3.6l-9.908,0.142l-1.391,3.642L134.86,63.813
	 M125.562,63.367c-8.54,0-12.018-5.452-12.104-11.435c-0.081-5.777,3.65-11.911,12.059-12.031c0.068-0.001,0.135-0.001,0.203-0.001
	c3.177,0,5.982,1.082,8.541,3.444l-3.855,3.875c-1.624-1.457-3.202-1.856-4.689-1.856c-0.04,0-0.081,0-0.122,0.001
	c-4.345,0.062-5.906,3.593-5.864,6.51c0.04,2.858,1.611,6.125,5.922,6.125c0.04,0,0.082-0.001,0.123-0.001
	c1.554-0.022,3.655-0.707,5.244-2.372l3.784,4.104c-2.507,2.578-5.506,3.584-8.951,3.636
	C125.754,63.366,125.657,63.367,125.562,63.367 M162.623,62.265l-0.334-23.32l11.387-0.161c0.066-0.001,0.133-0.001,0.199-0.001
	c5.852,0,8.943,3.767,9.003,7.888c0.042,2.88-0.925,5.353-4.847,7.121l6.19,7.771l0.006,0.393l-7.281,0.104l-5.535-7.491
	l-2.299,0.032l0.108,7.57L162.623,62.265 M173.874,35.947l-14.46,0.204l0.254,17.757l-7.1-15.303l-9.991,0.144l-7.41,17.193
	l-4.112-4.461l-2.086,2.186c-1.036,1.084-2.39,1.483-3.234,1.497h-0.083c-2.514,0-3.065-1.811-3.087-3.33
	c-0.017-1.081,0.253-3.597,3.07-3.637l0.083,0c0.758,0,1.682,0.135,2.795,1.132l2.004,1.797l7.83-7.87l-2.163-1.996
	c-3.016-2.784-6.536-4.196-10.464-4.196l-0.244,0.002c-10.348,0.146-14.951,7.829-14.852,14.905
	c0.123,8.644,5.986,14.229,14.937,14.229l0.333-0.004c1.896-0.027,3.629-0.309,5.217-0.845l-0.585,1.357l12.926-0.184l1.391-3.642
	l6.063-0.086l1.49,3.599l12.982-0.187l-0.531-1.144l7.249-0.104l-0.068-4.79l3.505,4.741l11.57-0.166l-0.06-4.194l-4.797-6.022
	c2.376-1.944,3.516-4.555,3.468-7.901C185.637,41.322,181.547,35.947,173.874,35.947"/>
<path fill="#B6B3B3" d="M125.72,39.9c-0.068,0-0.135,0-0.203,0.001c-8.408,0.12-12.14,6.254-12.059,12.031
	c0.086,5.982,3.563,11.435,12.104,11.435c0.096,0,0.192-0.001,0.29-0.002c3.445-0.052,6.444-1.058,8.951-3.636l-3.784-4.104
	c-1.589,1.665-3.69,2.35-5.244,2.372c-0.041,0-0.083,0.001-0.123,0.001c-4.311,0-5.882-3.267-5.922-6.125
	c-0.042-2.917,1.52-6.449,5.864-6.51c0.041,0,0.082-0.001,0.122-0.001c1.487,0,3.065,0.4,4.689,1.856l3.855-3.875
	C131.702,40.981,128.896,39.9,125.72,39.9"/>
<path fill="#B6B3B3" d="M144.921,54.802l2.751-7.096l2.922,7.016L144.921,54.802 M150.77,41.467l-6.315,0.091l-9.594,22.255
	l6.628-0.093l1.391-3.642l9.908-0.142l1.49,3.6l6.688-0.097L150.77,41.467"/>
<path fill="#B6B3B3" d="M169.043,49.719l-0.08-5.596l4.789-0.069c0.015,0,0.029,0,0.045,0c1.712,0,2.557,1.398,2.577,2.841
	c0.02,1.453-0.734,2.729-2.482,2.755L169.043,49.719 M173.875,38.783c-0.066,0-0.133,0-0.199,0.001l-11.387,0.161l0.334,23.32
	l6.598-0.095l-0.108-7.57l2.299-0.032l5.535,7.491l7.281-0.104l-0.006-0.393l-6.19-7.771c3.922-1.768,4.889-4.24,4.847-7.121
	C182.818,42.549,179.727,38.783,173.875,38.783"/>
<path fill="#48B865" d="M27.014,57.652l0.013,0.896l10.161-0.146l-0.019-1.346l0.985,1.333l5.249-0.075l0.013,0.933l18.623-0.267
	l-0.013-0.932l5.316-0.074l0.997-2.612l3.263-0.047l1.071,2.582l4.753-0.068l0.012,0.816L87.81,58.5l-0.07-4.951l0.031,0.037
	l3.484-0.056l0.149-0.181l0.073,5.098l10.374-0.149l-0.32-22.454l-9.185,0.13l-2.96,3.935l-3.09-3.848l-9.177,0.13l0.106,7.449
	l-3.386-7.3l-8.208,0.118l-4.094,9.499l-0.127-8.826l-18.304,0.262l0.017,1.187c-1.435-1.053-3.318-1.72-5.645-1.72l-10.759,0.152
	l0.012,0.818c-2.478-2.376-6.021-3.721-10.315-3.721l-0.305,0.002L3.856,34.29L4.25,61.93l12.256-0.174
	C20.94,61.692,24.552,60.211,27.014,57.652z M61.243,46.642l-0.162,0.375l-0.005-0.374L61.243,46.642z M15.922,50.853l-0.084-5.887
	l0.507-0.007c0.845,0,2.417,0,2.456,2.71c0.045,3.142-1.705,3.166-2.451,3.179L15.922,50.853z"/>
<path fill="#FFFFFF" d="M16.152,36.946l-9.421,0.136l0.313,21.973l9.421-0.133c7.892-0.114,11.416-5.285,11.331-11.321
	C27.71,41.597,23.919,36.837,16.152,36.946z M16.39,53.682l-3.262,0.046l-0.165-11.557l3.263-0.046
	c3.806-0.054,5.366,2.486,5.409,5.503C21.678,50.647,20.321,53.625,16.39,53.682z"/>
<path fill="#FFFFFF" d="M43.603,45.074c-0.042-2.846-2.19-5.435-6.259-5.377l-7.75,0.111l0.228,15.866l4.493-0.064l-0.074-5.145
	l1.563-0.024l3.767,5.095l4.954-0.071l-0.005-0.262l-4.214-5.288C42.971,48.708,43.629,47.026,43.603,45.074z M37.49,47.092
	l-3.298,0.047l-0.054-3.807l3.256-0.047c1.189-0.016,1.772,0.944,1.788,1.937C39.196,46.21,38.681,47.075,37.49,47.092z"/>
<polygon fill="#FFFFFF" points="50.632,49.999 58.286,49.89 58.233,46.166 50.579,46.273 50.546,43.958 58.671,43.842 
	58.616,40.006 45.98,40.188 46.211,56.372 59.165,56.186 59.109,52.327 50.667,52.448 "/>
<path fill="#FFFFFF" d="M67.508,39.267l-6.882,15.967l4.754-0.067l0.997-2.61l7.106-0.103l1.072,2.581l4.798-0.068L72.04,39.202
	L67.508,39.267z M67.842,48.77l1.978-5.09l2.098,5.033L67.842,48.77z"/>
<polygon fill="#FFFFFF" points="93.776,38.789 89.458,44.527 84.951,38.915 79.993,38.985 80.232,55.771 84.935,55.705 
	84.792,45.739 89.059,50.729 89.897,50.716 94.128,45.56 94.271,55.572 98.976,55.503 98.736,38.718 "/>
<path fill="#46B5E1" d="M180.313,52.6c2.377-1.944,3.517-4.554,3.468-7.9c-0.075-5.309-4.166-10.683-11.838-10.683l-14.46,0.203
	l0.254,17.758l-7.101-15.303l-9.989,0.144l-7.411,17.193l-4.112-4.46l-2.087,2.186c-1.034,1.084-2.39,1.483-3.234,1.497h-0.083
	c-2.513,0-3.065-1.812-3.087-3.331c-0.016-1.08,0.254-3.597,3.071-3.636l0.082,0c0.758,0,1.684,0.134,2.796,1.131l2.003,1.797
	l7.831-7.87l-2.163-1.996c-3.016-2.784-6.536-4.196-10.464-4.196l-0.244,0.002c-10.349,0.146-14.952,7.829-14.851,14.905
	c0.121,8.644,5.985,14.229,14.936,14.229l0.333-0.003c1.896-0.028,3.629-0.309,5.217-0.845l-0.586,1.356l12.926-0.183l1.392-3.643
	l6.063-0.086l1.49,3.6l12.981-0.186l-0.53-1.145l7.25-0.105l-0.068-4.79l3.504,4.742l11.569-0.166l-0.06-4.194L180.313,52.6z"/>
<path fill="#FFFFFF" d="M129.089,53.694c-1.59,1.665-3.691,2.351-5.245,2.373c-4.404,0.063-6.005-3.238-6.046-6.124
	c-0.041-2.918,1.52-6.449,5.865-6.511c1.522-0.022,3.143,0.359,4.812,1.855l3.855-3.875c-2.613-2.412-5.484-3.489-8.745-3.442
	c-8.408,0.12-12.139,6.254-12.058,12.031c0.087,6.05,3.641,11.557,12.394,11.432c3.445-0.05,6.444-1.057,8.951-3.635L129.089,53.694
	z"/>
<path fill="#FFFFFF" d="M142.523,39.626l-9.594,22.256l6.628-0.094l1.391-3.642l9.908-0.141l1.49,3.599l6.688-0.096l-10.195-21.974
	L142.523,39.626z M142.99,52.872l2.75-7.097l2.922,7.016L142.99,52.872z"/>
<path fill="#FFFFFF" d="M180.946,44.74c-0.059-4.168-3.221-7.973-9.202-7.887l-11.386,0.161l0.333,23.319l6.598-0.095l-0.107-7.57
	l2.299-0.031l5.535,7.492l7.28-0.105l-0.006-0.392l-6.189-7.771C180.021,50.093,180.988,47.62,180.946,44.74z M171.96,47.72
	l-4.848,0.069l-0.08-5.596l4.788-0.069c1.743-0.024,2.602,1.386,2.623,2.841C174.462,46.418,173.709,47.694,171.96,47.72z"/>
</svg>
